<mxfile host="app.diagrams.net" modified="2024-07-23T08:13:46.266Z" agent="Mozilla/5.0 (X11; Ubuntu; Linux x86_64; rv:127.0) Gecko/20100101 Firefox/127.0" version="24.7.3" etag="lsCpVRAiaZU0v9ENVUG8" type="github">
  <diagram name="第 1 页" id="VHs769pcojIaYb3a3lVS">
    <mxGraphModel>
      <root>
        <mxCell id="0" />
        <mxCell id="1" parent="0" />
      </root>
    </mxGraphModel>
  </diagram>
</mxfile>
